<?xml version="1.0" encoding="UTF-8" standalone="no"?>
<!-- Created with Inkscape (http://www.inkscape.org/) -->

<svg
   xmlns:dc="http://purl.org/dc/elements/1.1/"
   xmlns:cc="http://creativecommons.org/ns#"
   xmlns:rdf="http://www.w3.org/1999/02/22-rdf-syntax-ns#"
   xmlns:svg="http://www.w3.org/2000/svg"
   xmlns="http://www.w3.org/2000/svg"
   xmlns:sodipodi="http://sodipodi.sourceforge.net/DTD/sodipodi-0.dtd"
   xmlns:inkscape="http://www.inkscape.org/namespaces/inkscape"
   width="512"
   height="512"
   id="svg2"
   version="1.1"
   inkscape:version="0.48.5 r10040"
   sodipodi:docname="drop_target.svg">
  <defs
     id="defs4" />
  <sodipodi:namedview
     id="base"
     pagecolor="#ffffff"
     bordercolor="#666666"
     borderopacity="1.0"
     inkscape:pageopacity="0.0"
     inkscape:pageshadow="2"
     inkscape:zoom="1"
     inkscape:cx="364.53131"
     inkscape:cy="266.93098"
     inkscape:document-units="px"
     inkscape:current-layer="layer1"
     showgrid="false"
     inkscape:window-width="1366"
     inkscape:window-height="721"
     inkscape:window-x="-2"
     inkscape:window-y="-3"
     inkscape:window-maximized="1" />
  <metadata
     id="metadata7">
    <rdf:RDF>
      <cc:Work
         rdf:about="">
        <dc:format>image/svg+xml</dc:format>
        <dc:type
           rdf:resource="http://purl.org/dc/dcmitype/StillImage" />
        <dc:title />
      </cc:Work>
    </rdf:RDF>
  </metadata>
  <g
     inkscape:label="Layer 1"
     inkscape:groupmode="layer"
     id="layer1"
     transform="translate(0,-540.36217)">
    <path
       style="fill:#babdb6;fill-opacity:1;stroke:none"
       d="m 177.96875,606.36289 c -1.2781,0 -2.55191,0.48941 -3.53125,1.46875 -1.95869,1.95869 -1.95092,5.12733 0,7.09375 l 55,55.43675 -121.4375,0 c -5.54,0 -10,4.46 -10,10 l 0,176.00003 c 0,5.54 4.46,10 10,10 l 294,0 c 5.54,0 10,-4.46 10,-10 l 0,-176.00003 c 0,-5.54 -4.46,-10 -10,-10 l -140.46875,0 55.03125,-55.43675 c 1.95869,-1.95869 1.95869,-5.13506 0,-7.09375 -1.95869,-1.95869 -5.13506,-1.95869 -7.09375,0 l -62.0625,62.5305 -3.84375,0 -62.0625,-62.5305 c -0.97934,-0.97934 -2.25315,-1.46875 -3.53125,-1.46875 z M 128,690.36214 l 202,0 c 5.54,0 10,4.46 10,10 l 0,136.00003 c 0,5.54 -4.46,10 -10,10 l -202,0 c -5.54,0 -10,-4.46 -10,-10 l 0,-136.00003 c 0,-5.54 4.46,-10 10,-10 z m 247,8.5 c 6.62742,0 12,5.37258 12,12 0,6.62742 -5.37258,12 -12,12 -6.62742,0 -12,-5.37258 -12,-12 0,-6.62742 5.37258,-12 12,-12 z m 0,32 c 6.62742,0 12,5.37258 12,12 0,6.62742 -5.37258,12 -12,12 -6.62742,0 -12,-5.37258 -12,-12 0,-6.62742 5.37258,-12 12,-12 z"
       id="rect2994"
       inkscape:connector-curvature="0"
       sodipodi:nodetypes="ssscssssssssccsccccssssssssssssssssssss" />
    <g
       transform="translate(74,502.36217)"
       style="font-size:40px;font-style:normal;font-weight:normal;line-height:125%;letter-spacing:0px;word-spacing:0px;fill:#babdb6;fill-opacity:1;stroke:none;font-family:Sans"
       id="flowRoot3026">
      <path
         d="m 6.0996094,442.28487 c -1.91e-5,3.29037 -0.9388203,5.81055 -2.8164063,7.56055 -1.868504,1.75 -4.5709752,2.625 -8.1074218,2.625 l -5.6601563,0 0,-19.98828 6.2753906,0 c 3.2630088,2e-5 5.7968604,0.86135 7.6015625,2.58398 1.8046693,1.72267 2.7070122,4.12892 2.7070313,7.21875 m -4.4023438,0.10938 c -1.47e-5,-4.29296 -1.89584611,-6.43944 -5.6875,-6.43946 l -2.2558593,0 0,13.01563 1.8183593,0 c 4.0833207,0 6.1249853,-2.19205 6.125,-6.57617"
         style="font-size:28px;font-variant:normal;font-weight:bold;font-stretch:normal;fill:#babdb6;font-family:Open Sans;-inkscape-font-specification:Open Sans Bold"
         id="path2996" />
      <path
         d="m 18.445312,436.89815 c 0.565093,2e-5 1.034494,0.041 1.408204,0.12305 l -0.314454,3.91016 c -0.337251,-0.0911 -0.747406,-0.13671 -1.230468,-0.13672 -1.330739,10e-6 -2.3698,0.34181 -3.117188,1.02539 -0.738288,0.6836 -1.107428,1.64063 -1.107422,2.87109 l 0,7.7793 -4.1699215,0 0,-15.28516 3.1582035,0 0.615234,2.57032 0.205078,0 c 0.473952,-0.85676 1.111972,-1.54491 1.914063,-2.06446 0.811189,-0.52863 1.690745,-0.79295 2.638671,-0.79297"
         style="font-size:28px;font-variant:normal;font-weight:bold;font-stretch:normal;fill:#babdb6;font-family:Open Sans;-inkscape-font-specification:Open Sans Bold"
         id="path2998" />
      <path
         d="m 25.978516,444.8005 c -6e-6,1.51302 0.246088,2.6569 0.738281,3.43164 0.501295,0.77474 1.312492,1.16211 2.433594,1.16211 1.111969,0 1.909494,-0.38281 2.392578,-1.14844 0.492176,-0.77473 0.738269,-1.92317 0.738281,-3.44531 -1.2e-5,-1.51301 -0.246105,-2.64778 -0.738281,-3.4043 -0.492198,-0.7565 -1.298838,-1.13475 -2.419922,-1.13476 -1.111987,1e-5 -1.914069,0.37826 -2.40625,1.13476 -0.492193,0.74741 -0.738287,1.88217 -0.738281,3.4043 m 10.568359,0 c -1.6e-5,2.48828 -0.656265,4.43425 -1.96875,5.83789 -1.312513,1.40364 -3.139985,2.10547 -5.482422,2.10547 -1.467455,0 -2.761724,-0.31901 -3.882812,-0.95703 -1.121098,-0.64714 -1.982425,-1.57227 -2.583985,-2.77539 -0.601564,-1.20313 -0.902345,-2.60677 -0.902344,-4.21094 -1e-6,-2.49739 0.651691,-4.43879 1.955079,-5.82422 1.303381,-1.3854 3.13541,-2.07811 5.496093,-2.07813 1.467438,2e-5 2.761708,0.31903 3.882813,0.95704 1.12108,0.63803 1.982407,1.55404 2.583984,2.74804 0.601547,1.19402 0.902328,2.59311 0.902344,4.19727"
         style="font-size:28px;font-variant:normal;font-weight:bold;font-stretch:normal;fill:#babdb6;font-family:Open Sans;-inkscape-font-specification:Open Sans Bold"
         id="path3000" />
      <path
         d="m 48.386719,452.74386 c -1.795582,0 -3.203784,-0.6517 -4.22461,-1.95508 l -0.21875,0 c 0.145827,1.27604 0.218744,2.01432 0.21875,2.21484 l 0,6.19336 -4.169922,0 0,-22.01172 3.390625,0 0.587891,1.98243 0.191406,0 c 0.975253,-1.51301 2.419913,-2.26952 4.333985,-2.26954 1.804675,2e-5 3.217434,0.69728 4.238281,2.0918 1.020817,1.39454 1.531234,3.33139 1.53125,5.81055 -1.6e-5,1.63151 -0.241553,3.04883 -0.724609,4.25195 -0.473974,1.20313 -1.15301,2.11914 -2.03711,2.74805 -0.884127,0.6289 -1.923189,0.94336 -3.117187,0.94336 M 47.15625,440.23409 c -1.029956,1e-5 -1.781909,0.31902 -2.255859,0.95703 -0.473965,0.62892 -0.720059,1.67254 -0.738282,3.13086 l 0,0.45117 c -6e-6,1.64063 0.24153,2.81642 0.72461,3.52735 0.49218,0.71094 1.266918,1.06641 2.324218,1.0664 1.868479,1e-5 2.802723,-1.54036 2.802735,-4.62109 -1.2e-5,-1.5039 -0.232434,-2.62955 -0.697266,-3.37695 -0.45574,-0.7565 -1.175791,-1.13476 -2.160156,-1.13477"
         style="font-size:28px;font-variant:normal;font-weight:bold;font-stretch:normal;fill:#babdb6;font-family:Open Sans;-inkscape-font-specification:Open Sans Bold"
         id="path3002" />
      <path
         d="m 68.621094,452.47042 -5.824219,-15.28516 4.361328,0 2.953125,8.70899 c 0.328117,1.10287 0.533195,2.14649 0.615234,3.13086 l 0.08203,0 c 0.04556,-0.875 0.250643,-1.91862 0.615234,-3.13086 l 2.939453,-8.70899 4.361328,0 -5.824218,15.28516 -4.279297,0"
         style="font-size:28px;font-variant:normal;font-weight:bold;font-stretch:normal;fill:#babdb6;font-family:Open Sans;-inkscape-font-specification:Open Sans Bold"
         id="path3004" />
      <path
         d="m 80.720703,433.23409 c -2e-6,-1.35805 0.756508,-2.03709 2.269531,-2.03711 1.513015,2e-5 2.269525,0.67906 2.269532,2.03711 -7e-6,0.64716 -0.191413,1.15301 -0.574219,1.51758 -0.373704,0.35549 -0.938807,0.53322 -1.695313,0.5332 -1.513023,2e-5 -2.269533,-0.68357 -2.269531,-2.05078 m 4.347656,19.23633 -4.169922,0 0,-15.28516 4.169922,0 0,15.28516"
         style="font-size:28px;font-variant:normal;font-weight:bold;font-stretch:normal;fill:#babdb6;font-family:Open Sans;-inkscape-font-specification:Open Sans Bold"
         id="path3006" />
      <path
         d="m 94.269531,452.74386 c -1.795578,0 -3.208337,-0.69727 -4.238281,-2.0918 -1.020835,-1.39453 -1.531251,-3.32682 -1.53125,-5.79687 -10e-7,-2.50651 0.519529,-4.45702 1.558594,-5.85157 1.048173,-1.40363 2.488276,-2.10545 4.320312,-2.10547 1.923168,2e-5 3.390615,0.74741 4.402344,2.24219 l 0.136719,0 c -0.209647,-1.13931 -0.314465,-2.15558 -0.314453,-3.04883 l 0,-4.89453 4.183594,0 0,21.27344 -3.199219,0 -0.806641,-1.98242 -0.177734,0 c -0.947927,1.5039 -2.392587,2.25586 -4.333985,2.25586 m 1.462891,-3.32227 c 1.066397,0 1.845693,-0.30989 2.33789,-0.92969 0.501291,-0.61978 0.774728,-1.67252 0.820313,-3.1582 l 0,-0.45117 c -1.2e-5,-1.64062 -0.25522,-2.8164 -0.765625,-3.52734 -0.501312,-0.71093 -1.321624,-1.0664 -2.460938,-1.06641 -0.929694,1e-5 -1.654303,0.3965 -2.173828,1.18945 -0.510422,0.78387 -0.76563,1.92775 -0.765625,3.43164 -5e-6,1.50391 0.25976,2.63412 0.779297,3.39063 0.519525,0.7474 1.262363,1.12109 2.228516,1.12109"
         style="font-size:28px;font-variant:normal;font-weight:bold;font-stretch:normal;fill:#babdb6;font-family:Open Sans;-inkscape-font-specification:Open Sans Bold"
         id="path3008" />
      <path
         d="m 113.47852,439.86495 c -0.88413,10e-6 -1.57683,0.28257 -2.07813,0.84766 -0.50131,0.556 -0.78842,1.34897 -0.86133,2.3789 l 5.85157,0 c -0.0182,-1.02993 -0.28713,-1.8229 -0.80665,-2.3789 -0.51954,-0.56509 -1.22136,-0.84765 -2.10546,-0.84766 m 0.58789,12.87891 c -2.46095,0 -4.38412,-0.67904 -5.76953,-2.03711 -1.38542,-1.35807 -2.07813,-3.28125 -2.07813,-5.76953 0,-2.56119 0.63802,-4.53905 1.91406,-5.9336 1.28515,-1.40363 3.05794,-2.10545 5.31836,-2.10547 2.16015,2e-5 3.84179,0.61525 5.04492,1.84571 1.20311,1.23048 1.80468,2.93035 1.80469,5.09961 l 0,2.02343 -9.85742,0 c 0.0456,1.18491 0.39648,2.11003 1.05273,2.77539 0.65625,0.66537 1.57682,0.99805 2.76172,0.99805 0.92057,0 1.79101,-0.0957 2.61133,-0.28711 0.8203,-0.1914 1.67707,-0.49674 2.57031,-0.91601 l 0,3.22656 c -0.72918,0.36458 -1.50847,0.63346 -2.33789,0.80664 -0.82944,0.18229 -1.84115,0.27344 -3.03515,0.27344"
         style="font-size:28px;font-variant:normal;font-weight:bold;font-stretch:normal;fill:#babdb6;font-family:Open Sans;-inkscape-font-specification:Open Sans Bold"
         id="path3010" />
      <path
         d="m 127.04102,444.8005 c -1e-5,1.51302 0.24608,2.6569 0.73828,3.43164 0.50129,0.77474 1.31249,1.16211 2.43359,1.16211 1.11197,0 1.9095,-0.38281 2.39258,-1.14844 0.49217,-0.77473 0.73827,-1.92317 0.73828,-3.44531 -1e-5,-1.51301 -0.24611,-2.64778 -0.73828,-3.4043 -0.4922,-0.7565 -1.29884,-1.13475 -2.41992,-1.13476 -1.11199,1e-5 -1.91407,0.37826 -2.40625,1.13476 -0.4922,0.74741 -0.73829,1.88217 -0.73828,3.4043 m 10.56835,0 c -1e-5,2.48828 -0.65626,4.43425 -1.96875,5.83789 -1.31251,1.40364 -3.13998,2.10547 -5.48242,2.10547 -1.46745,0 -2.76172,-0.31901 -3.88281,-0.95703 -1.1211,-0.64714 -1.98242,-1.57227 -2.58398,-2.77539 -0.60157,-1.20313 -0.90235,-2.60677 -0.90235,-4.21094 0,-2.49739 0.65169,-4.43879 1.95508,-5.82422 1.30338,-1.3854 3.13541,-2.07811 5.49609,-2.07813 1.46744,2e-5 2.76171,0.31903 3.88282,0.95704 1.12108,0.63803 1.9824,1.55404 2.58398,2.74804 0.60155,1.19402 0.90233,2.59311 0.90234,4.19727"
         style="font-size:28px;font-variant:normal;font-weight:bold;font-stretch:normal;fill:#babdb6;font-family:Open Sans;-inkscape-font-specification:Open Sans Bold"
         id="path3012" />
      <path
         d="m 156.77734,440.31612 -3.60937,0 0,12.1543 -4.16992,0 0,-12.1543 -2.29688,0 0,-2.00976 2.29688,-1.1211 0,-1.12109 c -1e-5,-1.74087 0.42838,-3.01235 1.28515,-3.81445 0.85677,-0.80207 2.22851,-1.20311 4.11524,-1.20313 1.44009,2e-5 2.72069,0.21422 3.84179,0.64258 l -1.0664,3.0625 c -0.83855,-0.26431 -1.61329,-0.39647 -2.32422,-0.39648 -0.59246,1e-5 -1.02084,0.17775 -1.28516,0.5332 -0.26433,0.34637 -0.39649,0.79298 -0.39648,1.33984 l 0,0.95703 3.60937,0 0,3.13086 m 2.21485,-7.08203 c -2e-5,-1.35805 0.75649,-2.03709 2.26953,-2.03711 1.513,2e-5 2.26951,0.67906 2.26953,2.03711 -2e-5,0.64716 -0.19142,1.15301 -0.57422,1.51758 -0.37371,0.35549 -0.93882,0.53322 -1.69531,0.5332 -1.51304,2e-5 -2.26955,-0.68357 -2.26953,-2.05078 m 4.34765,19.23633 -4.16992,0 0,-15.28516 4.16992,0 0,15.28516"
         style="font-size:28px;font-variant:normal;font-weight:bold;font-stretch:normal;fill:#babdb6;font-family:Open Sans;-inkscape-font-specification:Open Sans Bold"
         id="path3014" />
      <path
         d="m 171.85742,452.47042 -4.16992,0 0,-21.27344 4.16992,0 0,21.27344"
         style="font-size:28px;font-variant:normal;font-weight:bold;font-stretch:normal;fill:#babdb6;font-family:Open Sans;-inkscape-font-specification:Open Sans Bold"
         id="path3016" />
      <path
         d="m 182.54883,439.86495 c -0.88412,10e-6 -1.57683,0.28257 -2.07813,0.84766 -0.5013,0.556 -0.78841,1.34897 -0.86133,2.3789 l 5.85157,0 c -0.0182,-1.02993 -0.28712,-1.8229 -0.80664,-2.3789 -0.51954,-0.56509 -1.22137,-0.84765 -2.10547,-0.84766 m 0.58789,12.87891 c -2.46095,0 -4.38412,-0.67904 -5.76953,-2.03711 -1.38542,-1.35807 -2.07813,-3.28125 -2.07813,-5.76953 0,-2.56119 0.63802,-4.53905 1.91406,-5.9336 1.28516,-1.40363 3.05794,-2.10545 5.31836,-2.10547 2.16015,2e-5 3.84179,0.61525 5.04493,1.84571 1.20311,1.23048 1.80467,2.93035 1.80468,5.09961 l 0,2.02343 -9.85742,0 c 0.0456,1.18491 0.39648,2.11003 1.05274,2.77539 0.65624,0.66537 1.57681,0.99805 2.76171,0.99805 0.92057,0 1.79101,-0.0957 2.61133,-0.28711 0.8203,-0.1914 1.67707,-0.49674 2.57032,-0.91601 l 0,3.22656 c -0.72918,0.36458 -1.50848,0.63346 -2.3379,0.80664 -0.82943,0.18229 -1.84115,0.27344 -3.03515,0.27344"
         style="font-size:28px;font-variant:normal;font-weight:bold;font-stretch:normal;fill:#babdb6;font-family:Open Sans;-inkscape-font-specification:Open Sans Bold"
         id="path3018" />
      <path
         d="m 208.51172,440.31612 -3.60938,0 0,12.1543 -4.16992,0 0,-12.1543 -2.29687,0 0,-2.00976 2.29687,-1.1211 0,-1.12109 c 0,-1.74087 0.42838,-3.01235 1.28516,-3.81445 0.85676,-0.80207 2.22851,-1.20311 4.11523,-1.20313 1.4401,2e-5 2.72069,0.21422 3.8418,0.64258 l -1.06641,3.0625 c -0.83855,-0.26431 -1.61329,-0.39647 -2.32422,-0.39648 -0.59245,1e-5 -1.02084,0.17775 -1.28515,0.5332 -0.26433,0.34637 -0.39649,0.79298 -0.39649,1.33984 l 0,0.95703 3.60938,0 0,3.13086"
         style="font-size:28px;font-variant:normal;font-weight:bold;font-stretch:normal;fill:#babdb6;font-family:Open Sans;-inkscape-font-specification:Open Sans Bold"
         id="path3020" />
      <path
         d="m 214.21289,444.8005 c 0,1.51302 0.24609,2.6569 0.73828,3.43164 0.5013,0.77474 1.31249,1.16211 2.4336,1.16211 1.11196,0 1.90949,-0.38281 2.39257,-1.14844 0.49218,-0.77473 0.73827,-1.92317 0.73828,-3.44531 -1e-5,-1.51301 -0.2461,-2.64778 -0.73828,-3.4043 -0.49219,-0.7565 -1.29883,-1.13475 -2.41992,-1.13476 -1.11198,1e-5 -1.91407,0.37826 -2.40625,1.13476 -0.49219,0.74741 -0.73828,1.88217 -0.73828,3.4043 m 10.56836,0 c -2e-5,2.48828 -0.65627,4.43425 -1.96875,5.83789 -1.31251,1.40364 -3.13998,2.10547 -5.48242,2.10547 -1.46746,0 -2.76173,-0.31901 -3.88281,-0.95703 -1.1211,-0.64714 -1.98243,-1.57227 -2.58399,-2.77539 -0.60156,-1.20313 -0.90234,-2.60677 -0.90234,-4.21094 0,-2.49739 0.65169,-4.43879 1.95508,-5.82422 1.30338,-1.3854 3.13541,-2.07811 5.49609,-2.07813 1.46744,2e-5 2.76171,0.31903 3.88281,0.95704 1.12108,0.63803 1.98241,1.55404 2.58399,2.74804 0.60154,1.19402 0.90232,2.59311 0.90234,4.19727"
         style="font-size:28px;font-variant:normal;font-weight:bold;font-stretch:normal;fill:#babdb6;font-family:Open Sans;-inkscape-font-specification:Open Sans Bold"
         id="path3022" />
      <path
         d="m 232.39648,452.47042 -4.16992,0 0,-21.27344 4.16992,0 0,21.27344"
         style="font-size:28px;font-variant:normal;font-weight:bold;font-stretch:normal;fill:#babdb6;font-family:Open Sans;-inkscape-font-specification:Open Sans Bold"
         id="path3024" />
      <path
         d="m 241.59766,452.74386 c -1.79558,0 -3.20834,-0.69727 -4.23829,-2.0918 -1.02083,-1.39453 -1.53125,-3.32682 -1.53125,-5.79687 0,-2.50651 0.51953,-4.45702 1.5586,-5.85157 1.04817,-1.40363 2.48827,-2.10545 4.32031,-2.10547 1.92317,2e-5 3.39062,0.74741 4.40234,2.24219 l 0.13672,0 c -0.20964,-1.13931 -0.31446,-2.15558 -0.31445,-3.04883 l 0,-4.89453 4.18359,0 0,21.27344 -3.19921,0 -0.80665,-1.98242 -0.17773,0 c -0.94793,1.5039 -2.39259,2.25586 -4.33398,2.25586 m 1.46289,-3.32227 c 1.06639,0 1.84569,-0.30989 2.33789,-0.92969 0.50129,-0.61978 0.77473,-1.67252 0.82031,-3.1582 l 0,-0.45117 c -1e-5,-1.64062 -0.25522,-2.8164 -0.76563,-3.52734 -0.50131,-0.71093 -1.32162,-1.0664 -2.46093,-1.06641 -0.9297,1e-5 -1.65431,0.3965 -2.17383,1.18945 -0.51042,0.78387 -0.76563,1.92775 -0.76563,3.43164 0,1.50391 0.25976,2.63412 0.7793,3.39063 0.51953,0.7474 1.26236,1.12109 2.22852,1.12109"
         style="font-size:28px;font-variant:normal;font-weight:bold;font-stretch:normal;fill:#babdb6;font-family:Open Sans;-inkscape-font-specification:Open Sans Bold"
         id="path3026" />
      <path
         d="m 260.80664,439.86495 c -0.88412,10e-6 -1.57683,0.28257 -2.07812,0.84766 -0.50131,0.556 -0.78842,1.34897 -0.86133,2.3789 l 5.85156,0 c -0.0182,-1.02993 -0.28712,-1.8229 -0.80664,-2.3789 -0.51954,-0.56509 -1.22136,-0.84765 -2.10547,-0.84766 m 0.58789,12.87891 c -2.46094,0 -4.38412,-0.67904 -5.76953,-2.03711 -1.38542,-1.35807 -2.07813,-3.28125 -2.07813,-5.76953 0,-2.56119 0.63802,-4.53905 1.91407,-5.9336 1.28515,-1.40363 3.05793,-2.10545 5.31836,-2.10547 2.16014,2e-5 3.84178,0.61525 5.04492,1.84571 1.20311,1.23048 1.80467,2.93035 1.80469,5.09961 l 0,2.02343 -9.85743,0 c 0.0456,1.18491 0.39648,2.11003 1.05274,2.77539 0.65624,0.66537 1.57681,0.99805 2.76172,0.99805 0.92056,0 1.791,-0.0957 2.61133,-0.28711 0.8203,-0.1914 1.67707,-0.49674 2.57031,-0.91601 l 0,3.22656 c -0.72918,0.36458 -1.50848,0.63346 -2.33789,0.80664 -0.82944,0.18229 -1.84116,0.27344 -3.03516,0.27344"
         style="font-size:28px;font-variant:normal;font-weight:bold;font-stretch:normal;fill:#babdb6;font-family:Open Sans;-inkscape-font-specification:Open Sans Bold"
         id="path3028" />
      <path
         d="m 279.57812,436.89815 c 0.5651,2e-5 1.0345,0.041 1.40821,0.12305 l -0.31446,3.91016 c -0.33725,-0.0911 -0.7474,-0.13671 -1.23046,-0.13672 -1.33074,10e-6 -2.3698,0.34181 -3.11719,1.02539 -0.73829,0.6836 -1.10743,1.64063 -1.10742,2.87109 l 0,7.7793 -4.16993,0 0,-15.28516 3.15821,0 0.61523,2.57032 0.20508,0 c 0.47395,-0.85676 1.11197,-1.54491 1.91406,-2.06446 0.81119,-0.52863 1.69075,-0.79295 2.63867,-0.79297"
         style="font-size:28px;font-variant:normal;font-weight:bold;font-stretch:normal;fill:#babdb6;font-family:Open Sans;-inkscape-font-specification:Open Sans Bold"
         id="path3030" />
      <path
         d="m 294.45312,447.93136 c -1e-5,1.56771 -0.54688,2.76172 -1.64062,3.58203 -1.08465,0.82031 -2.7116,1.23047 -4.88086,1.23047 -1.11198,0 -2.0599,-0.0775 -2.84375,-0.23242 -0.78386,-0.14584 -1.51758,-0.36459 -2.20117,-0.65625 l 0,-3.44532 c 0.77474,0.36459 1.64518,0.66993 2.61133,0.91602 0.97525,0.24609 1.83202,0.36914 2.57031,0.36914 1.51301,0 2.26952,-0.4375 2.26953,-1.3125 -1e-5,-0.32812 -0.10027,-0.59244 -0.30078,-0.79297 -0.20053,-0.20963 -0.54688,-0.44205 -1.03906,-0.69727 -0.4922,-0.26431 -1.14845,-0.56965 -1.96875,-0.91601 -1.17579,-0.49218 -2.04167,-0.94791 -2.59766,-1.36719 -0.54688,-0.41926 -0.94792,-0.89778 -1.20312,-1.43555 -0.2461,-0.54686 -0.36915,-1.21678 -0.36915,-2.00976 0,-1.35806 0.52409,-2.40624 1.57227,-3.14453 1.05729,-0.74738 2.55208,-1.12108 4.48438,-1.1211 1.84113,2e-5 3.63215,0.40106 5.37304,1.20313 l -1.25781,3.00781 c -0.76564,-0.32811 -1.48113,-0.59699 -2.14648,-0.80664 -0.66538,-0.20962 -1.34441,-0.31444 -2.03711,-0.31445 -1.23048,10e-6 -1.84571,0.33269 -1.84571,0.99804 0,0.37371 0.19596,0.69728 0.58789,0.97071 0.40104,0.27345 1.27148,0.67904 2.61133,1.21679 1.194,0.48309 2.069,0.93426 2.625,1.35352 0.55598,0.41928 0.96614,0.90235 1.23047,1.44922 0.26431,0.54688 0.39647,1.19857 0.39648,1.95508"
         style="font-size:28px;font-variant:normal;font-weight:bold;font-stretch:normal;fill:#babdb6;font-family:Open Sans;-inkscape-font-specification:Open Sans Bold"
         id="path3032" />
      <path
         d="m 319.11719,452.47042 -4.16992,0 0,-8.92773 c -2e-5,-2.20572 -0.82033,-3.30859 -2.46094,-3.3086 -1.16668,1e-5 -2.00978,0.3965 -2.5293,1.18945 -0.51954,0.79298 -0.7793,2.07814 -0.7793,3.85547 l 0,7.19141 -4.16992,0 0,-21.27344 4.16992,0 0,4.33399 c 0,0.33725 -0.0319,1.13022 -0.0957,2.3789 l -0.0957,1.23047 0.21875,0 c 0.92968,-1.49478 2.40624,-2.24217 4.42969,-2.24219 1.79556,2e-5 3.15818,0.48309 4.08789,1.44922 0.92967,0.96616 1.39451,2.35158 1.39453,4.15625 l 0,9.9668"
         style="font-size:28px;font-variant:normal;font-weight:bold;font-stretch:normal;fill:#babdb6;font-family:Open Sans;-inkscape-font-specification:Open Sans Bold"
         id="path3034" />
      <path
         d="m 329.76758,439.86495 c -0.88412,10e-6 -1.57683,0.28257 -2.07813,0.84766 -0.5013,0.556 -0.78841,1.34897 -0.86133,2.3789 l 5.85157,0 c -0.0182,-1.02993 -0.28712,-1.8229 -0.80664,-2.3789 -0.51954,-0.56509 -1.22137,-0.84765 -2.10547,-0.84766 m 0.58789,12.87891 c -2.46095,0 -4.38412,-0.67904 -5.76953,-2.03711 -1.38542,-1.35807 -2.07813,-3.28125 -2.07813,-5.76953 0,-2.56119 0.63802,-4.53905 1.91406,-5.9336 1.28516,-1.40363 3.05794,-2.10545 5.31836,-2.10547 2.16015,2e-5 3.84179,0.61525 5.04493,1.84571 1.20311,1.23048 1.80467,2.93035 1.80468,5.09961 l 0,2.02343 -9.85742,0 c 0.0456,1.18491 0.39648,2.11003 1.05274,2.77539 0.65624,0.66537 1.57681,0.99805 2.76171,0.99805 0.92057,0 1.79101,-0.0957 2.61133,-0.28711 0.8203,-0.1914 1.67707,-0.49674 2.57032,-0.91601 l 0,3.22656 c -0.72918,0.36458 -1.50848,0.63346 -2.3379,0.80664 -0.82943,0.18229 -1.84115,0.27344 -3.03515,0.27344"
         style="font-size:28px;font-variant:normal;font-weight:bold;font-stretch:normal;fill:#babdb6;font-family:Open Sans;-inkscape-font-specification:Open Sans Bold"
         id="path3036" />
      <path
         d="m 348.53906,436.89815 c 0.5651,2e-5 1.0345,0.041 1.40821,0.12305 l -0.31446,3.91016 c -0.33725,-0.0911 -0.7474,-0.13671 -1.23047,-0.13672 -1.33073,10e-6 -2.3698,0.34181 -3.11718,1.02539 -0.73829,0.6836 -1.10743,1.64063 -1.10743,2.87109 l 0,7.7793 -4.16992,0 0,-15.28516 3.15821,0 0.61523,2.57032 0.20508,0 c 0.47395,-0.85676 1.11197,-1.54491 1.91406,-2.06446 0.81119,-0.52863 1.69075,-0.79295 2.63867,-0.79297"
         style="font-size:28px;font-variant:normal;font-weight:bold;font-stretch:normal;fill:#babdb6;font-family:Open Sans;-inkscape-font-specification:Open Sans Bold"
         id="path3038" />
      <path
         d="m 359.08008,439.86495 c -0.88412,10e-6 -1.57683,0.28257 -2.07813,0.84766 -0.5013,0.556 -0.78841,1.34897 -0.86133,2.3789 l 5.85157,0 c -0.0182,-1.02993 -0.28712,-1.8229 -0.80664,-2.3789 -0.51954,-0.56509 -1.22137,-0.84765 -2.10547,-0.84766 m 0.58789,12.87891 c -2.46095,0 -4.38412,-0.67904 -5.76953,-2.03711 -1.38542,-1.35807 -2.07813,-3.28125 -2.07813,-5.76953 0,-2.56119 0.63802,-4.53905 1.91406,-5.9336 1.28516,-1.40363 3.05794,-2.10545 5.31836,-2.10547 2.16015,2e-5 3.84179,0.61525 5.04493,1.84571 1.20311,1.23048 1.80467,2.93035 1.80468,5.09961 l 0,2.02343 -9.85742,0 c 0.0456,1.18491 0.39648,2.11003 1.05274,2.77539 0.65624,0.66537 1.57681,0.99805 2.76171,0.99805 0.92057,0 1.79101,-0.0957 2.61133,-0.28711 0.8203,-0.1914 1.67707,-0.49674 2.57032,-0.91601 l 0,3.22656 c -0.72918,0.36458 -1.50848,0.63346 -2.3379,0.80664 -0.82943,0.18229 -1.84115,0.27344 -3.03515,0.27344"
         style="font-size:28px;font-variant:normal;font-weight:bold;font-stretch:normal;fill:#babdb6;font-family:Open Sans;-inkscape-font-specification:Open Sans Bold"
         id="path3040" />
      <path
         d="m 368.73242,450.51534 c 0,-0.76562 0.20508,-1.3444 0.61524,-1.73633 0.41015,-0.39192 1.00715,-0.58788 1.79101,-0.58789 0.75651,10e-6 1.33984,0.20053 1.75,0.60157 0.41927,0.40104 0.6289,0.97526 0.62891,1.72265 -1e-5,0.72005 -0.20964,1.28972 -0.62891,1.70899 -0.41927,0.41015 -1.00261,0.61523 -1.75,0.61523 -0.76563,0 -1.35807,-0.20052 -1.77734,-0.60156 -0.41927,-0.41016 -0.62891,-0.98438 -0.62891,-1.72266"
         style="font-size:28px;font-variant:normal;font-weight:bold;font-stretch:normal;fill:#babdb6;font-family:Open Sans;-inkscape-font-specification:Open Sans Bold"
         id="path3042" />
    </g>
  </g>
</svg>
